#!OML:ASF H:\ManfredETheater\Project 1\Capture day 1\Session 1\subject.ASF
:FULLY-SPECIFIED
:DEGREES
77
root 1.70501 17.1599 34.1509 -175.523 -4.52839 178.852
lowerback -0.88884 -1.00259 -3.074
upperback -4.3181 -1.53765 1.26082
thorax -3.84307 -0.717768 3.06681
lowerneck -19.3979 -1.17446 -2.90714
upperneck 24.1601 -1.82439 1.65423
head 11.0762 -1.13856 0.765695
rclavicle 1.1281e-014 -1.07344e-014
rhumerus -37.6988 -8.57346 -80.0563
rradius 27.9591
rwrist 4.41511
rhand -18.7602 -10.9379
rfingers 7.12502
rthumb 7.53664 -40.7836
lclavicle 1.1281e-014 -1.07344e-014
lhumerus -32.7095 5.34522 88.6662
lradius 26.8694
lwrist -17.6599
lhand -10.6173 9.75462
lfingers 7.12502
lthumb 15.3891 39.1619
rfemur -12.6584 -0.179025 16.4226
rtibia 33.5434
rfoot -21.4435 -13.5198
rtoes 6.14361
lfemur -15.3364 -4.66597 -18.8338
ltibia 35.3648
lfoot -21.1361 2.46488
ltoes 0.183172
78
root 1.70475 17.16 34.1512 -175.516 -4.51295 178.852
lowerback -0.898747 -1.00059 -3.06649
upperback -4.31487 -1.53455 1.25825
thorax -3.83453 -0.716714 3.05955
lowerneck -19.4003 -1.17073 -2.89259
upperneck 24.1556 -1.82354 1.65589
head 11.0748 -1.13637 0.764011
rclavicle 7.25564e-015 7.15625e-015
rhumerus -37.7112 -8.6307 -80.031
rradius 27.9286
rwrist 4.44675
rhand -18.7563 -10.9679
rfingers 7.12502
rthumb 7.5404 -40.8135
lclavicle 7.25564e-015 7.15625e-015
lhumerus -32.715 5.25893 88.7377
lradius 26.9141
lwrist -17.5949
lhand -10.5603 9.80375
lfingers 7.12502
lthumb 15.444 39.2068
rfemur -12.6684 -0.170746 16.4207
rtibia 33.5428
rfoot -21.4419 -13.5133
rtoes 6.15216
lfemur -15.3416 -4.66406 -18.8346
ltibia 35.3647
lfoot -21.1367 2.47485
ltoes 0.187654
79
root 1.70447 17.1601 34.1514 -175.509 -4.49943 178.851
lowerback -0.908166 -0.998725 -3.05897
upperback -4.31269 -1.53174 1.25545
thorax -3.82735 -0.7158 3.05208
lowerneck -19.4009 -1.16698 -2.87867
upperneck 24.1521 -1.82253 1.65676
head 11.0735 -1.13436 0.762161
rclavicle 2.28105e-014 -1.19271e-014
rhumerus -37.7247 -8.68105 -80.0101
rradius 27.9032
rwrist 4.46933
rhand -18.7597 -11.0222
rfingers 7.12502
rthumb 7.53706 -40.868
lclavicle 2.28105e-014 -1.19271e-014
lhumerus -32.7226 5.17861 88.8042
lradius 26.9552
lwrist -17.538
lhand -10.5062 9.85347
lfingers 7.12502
lthumb 15.4962 39.2525
rfemur -12.678 -0.163683 16.4176
rtibia 33.5418
rfoot -21.4417 -13.5061
rtoes 6.16767
lfemur -15.3475 -4.66219 -18.8365
ltibia 35.3643
lfoot -21.1366 2.48314
ltoes 0.193162
80
root 1.70418 17.1602 34.1516 -175.502 -4.4865 178.851
lowerback -0.917598 -0.996344 -3.05067
upperback -4.31121 -1.52829 1.25252
thorax -3.82095 -0.714599 3.04405
lowerneck -19.4023 -1.16374 -2.86359
upperneck 24.1523 -1.82213 1.65454
head 11.0736 -1.13304 0.75888
rclavicle -1.70458e-014 -1.63003e-014
rhumerus -37.7387 -8.72798 -79.9922
rradius 27.8807
rwrist 4.49066
rhand -18.767 -11.094
rfingers 7.12502
rthumb 7.53002 -40.9399
lclavicle -1.70458e-014 -1.63003e-014
lhumerus -32.7314 5.10324 88.8656
lradius 26.9925
lwrist -17.4867
lhand -10.4469 9.90714
lfingers 7.12502
lthumb 15.5533 39.3017
rfemur -12.6872 -0.156442 16.4148
rtibia 33.5399
rfoot -21.4416 -13.4986
rtoes 6.18529
lfemur -15.3539 -4.65969 -18.838
ltibia 35.364
lfoot -21.1364 2.49092
ltoes 0.196685
